<?xml version="1.0" standalone="no"?>
<!DOCTYPE svg PUBLIC "-//W3C//DTD SVG 20010904//EN"
 "http://www.w3.org/TR/2001/REC-SVG-20010904/DTD/svg10.dtd">
<svg version="1.0" xmlns="http://www.w3.org/2000/svg"
 width="300.000000pt" height="300.000000pt" viewBox="0 0 300.000000 300.000000"
 preserveAspectRatio="xMidYMid meet">
<metadata>
Created by potrace 1.11, written by Peter Selinger 2001-2013
</metadata>
<g transform="translate(0.000000,300.000000) scale(0.100000,-0.100000)"
fill="#000000" stroke="none">
<path d="M1468 2125 c-2 -3 -23 -7 -46 -10 -23 -3 -63 -12 -89 -21 -54 -18
-166 -75 -171 -86 -2 -5 -8 -8 -13 -8 -5 0 -23 -12 -40 -27 -123 -108 -202
-230 -243 -373 -23 -80 -37 -227 -26 -270 5 -19 14 -62 20 -95 23 -117 108
-238 199 -285 100 -51 170 -65 316 -63 l90 2 1 -107 c1 -59 4 -174 8 -257 12
-273 12 -281 -14 -288 -22 -6 -22 -5 -24 -122 -3 -127 -20 -116 178 -113 l171
3 -2 25 c-1 14 -5 50 -8 80 -4 30 -8 69 -10 85 -2 17 -4 33 -4 38 -1 4 -8 7
-16 7 -19 0 -17 -8 -20 132 -1 65 -5 124 -8 133 -4 8 -1 15 6 15 8 0 8 3 1 8
-5 4 -11 25 -11 47 0 22 -3 114 -6 205 l-5 165 41 20 c23 11 44 22 47 25 3 4
21 16 41 28 82 50 167 165 198 269 17 58 22 205 8 248 -3 11 -9 35 -12 53 -22
131 -137 334 -238 419 -74 63 -170 106 -238 108 -31 1 -61 5 -66 8 -6 4 -12 4
-15 2z"/>
</g>
</svg>
